<?xml version="1.0" encoding="UTF-8"?>
<svg id="Layer_2" data-name="Layer 2" xmlns="http://www.w3.org/2000/svg" xmlns:xlink="http://www.w3.org/1999/xlink" viewBox="0 0 198.39 195.84">
  <defs>
    <style>
      .cls-1 {
        font-size: 42.75px;
      }

      .cls-1, .cls-2, .cls-3 {
        font-family: DMSerifDisplay-Regular, 'DM Serif Display';
      }

      .cls-1, .cls-4 {
        fill: #302d30;
      }

      .cls-5 {
        stroke: #fff;
        stroke-width: .28px;
      }

      .cls-5, .cls-6, .cls-7, .cls-8, .cls-9 {
        fill: none;
      }

      .cls-5, .cls-7, .cls-8, .cls-9, .cls-10 {
        stroke-miterlimit: 10;
      }

      .cls-2 {
        font-size: 23.25px;
      }

      .cls-2, .cls-11 {
        fill: #ad7d5c;
      }

      .cls-12 {
        letter-spacing: -.02em;
      }

      .cls-13 {
        letter-spacing: -.03em;
      }

      .cls-14 {
        letter-spacing: 0em;
      }

      .cls-3 {
        font-size: 7.26px;
      }

      .cls-3, .cls-10 {
        fill: #fff;
      }

      .cls-11, .cls-6, .cls-4 {
        stroke-width: 0px;
      }

      .cls-15 {
        clip-path: url(#clippath-1);
      }

      .cls-16 {
        letter-spacing: 0em;
      }

      .cls-17 {
        letter-spacing: -.02em;
      }

      .cls-18 {
        letter-spacing: -.01em;
      }

      .cls-19 {
        letter-spacing: -.02em;
      }

      .cls-7 {
        stroke-width: .85px;
      }

      .cls-7, .cls-9, .cls-10 {
        stroke: #302d30;
      }

      .cls-20 {
        clip-path: url(#clippath);
      }

      .cls-21 {
        letter-spacing: 0em;
      }

      .cls-22 {
        letter-spacing: -.02em;
      }

      .cls-8 {
        stroke: #ad7d5c;
        stroke-width: .77px;
      }

      .cls-23 {
        letter-spacing: .1em;
      }

      .cls-24 {
        letter-spacing: .1em;
      }

      .cls-9 {
        stroke-width: 1.13px;
      }

      .cls-10 {
        stroke-width: 4.54px;
      }

      .cls-25 {
        letter-spacing: .08em;
      }
    </style>
    <clipPath id="clippath">
      <path class="cls-6" d="M105.86,12.85h0c5.26-3.67,12.49-2.39,16.18,2.85h0c2.8,3.99,7.8,5.81,12.51,4.55h0c6.2-1.65,12.56,2.02,14.23,8.21h0c1.27,4.71,5.34,8.13,10.2,8.56h0c6.39.57,11.11,6.2,10.56,12.59h0c-.42,4.86,2.24,9.46,6.66,11.53h0c5.81,2.72,8.32,9.62,5.62,15.44h0c-2.05,4.42-1.13,9.66,2.31,13.11h0c4.53,4.54,4.53,11.89,0,16.43h0c-3.44,3.45-4.37,8.69-2.31,13.11h0c2.7,5.82.19,12.72-5.62,15.44h0c-4.42,2.07-7.08,6.67-6.66,11.53h0c.55,6.39-4.17,12.02-10.56,12.59h0c-4.86.43-8.93,3.85-10.2,8.56h0c-1.67,6.19-8.03,9.86-14.23,8.21h0c-4.71-1.25-9.71.56-12.51,4.55h0c-3.69,5.25-10.92,6.52-16.18,2.85h0c-4-2.79-9.32-2.79-13.32,0h0c-5.26,3.67-12.49,2.39-16.18-2.85h0c-2.8-3.99-7.8-5.81-12.51-4.55h0c-6.2,1.65-12.56-2.02-14.23-8.21h0c-1.27-4.71-5.34-8.13-10.2-8.56h0c-6.39-.57-11.11-6.2-10.56-12.59h0c.42-4.86-2.24-9.46-6.66-11.53h0c-5.81-2.72-8.32-9.62-5.62-15.44h0c2.05-4.42,1.13-9.66-2.31-13.11h0c-4.53-4.54-4.53-11.89,0-16.43h0c3.44-3.45,4.37-8.69,2.31-13.11h0c-2.7-5.82-.19-12.72,5.62-15.44h0c4.42-2.07,7.08-6.67,6.66-11.53h0c-.55-6.39,4.17-12.02,10.56-12.59h0c4.86-.43,8.93-3.85,10.2-8.56h0c1.67-6.19,8.03-9.86,14.23-8.21h0c4.71,1.25,9.71-.56,12.51-4.55h0c3.69-5.25,10.92-6.52,16.18-2.85h0c4,2.79,9.32,2.79,13.32,0Z"/>
    </clipPath>
    <clipPath id="clippath-1">
      <path class="cls-6" d="M156.32,36.46c-3.62-1.23-6.47-4.19-7.5-7.99-1.67-6.19-8.03-9.86-14.23-8.21h0c-4.71,1.25-9.71-.56-12.51-4.55-3.69-5.25-10.92-6.52-16.18-2.85-4,2.79-9.32,2.79-13.32,0h0c-5.26-3.67-12.49-2.39-16.18,2.85-2.8,3.99-7.8,5.81-12.51,4.55h0c-6.2-1.65-12.56,2.02-14.23,8.21-1.03,3.84-3.93,6.81-7.59,8.02v23.67h114.25v-23.7Z"/>
    </clipPath>
  </defs>
  <g id="OBJECTS">
    <path class="cls-10" d="M106.5,4.57h0c5.77-4.03,13.71-2.63,17.75,3.13h0c3.08,4.38,8.56,6.38,13.73,5h0c6.8-1.81,13.78,2.22,15.61,9.01h0c1.39,5.17,5.86,8.92,11.19,9.39h0c7.01.62,12.19,6.8,11.59,13.81h0c-.46,5.33,2.46,10.39,7.31,12.66h0c6.37,2.98,9.13,10.56,6.17,16.94h0c-2.25,4.86-1.24,10.6,2.54,14.39h0c4.97,4.98,4.97,13.05,0,18.03h0c-3.78,3.79-4.79,9.54-2.54,14.39h0c2.96,6.38.21,13.96-6.17,16.94h0c-4.85,2.27-7.76,7.32-7.31,12.66h0c.6,7.01-4.58,13.19-11.59,13.81h0c-5.33.48-9.8,4.23-11.19,9.39h0c-1.83,6.79-8.81,10.82-15.61,9.01h0c-5.17-1.38-10.66.62-13.73,5h0c-4.04,5.76-11.98,7.16-17.75,3.13h0c-4.39-3.06-10.22-3.06-14.61,0h0c-5.77,4.03-13.71,2.63-17.75-3.13h0c-3.08-4.38-8.56-6.38-13.73-5h0c-6.8,1.81-13.78-2.22-15.61-9.01h0c-1.39-5.17-5.86-8.92-11.19-9.39h0c-7.01-.62-12.19-6.8-11.59-13.81h0c.46-5.33-2.46-10.39-7.31-12.66h0c-6.37-2.98-9.13-10.56-6.17-16.94h0c2.25-4.85,1.24-10.6-2.54-14.39h0c-4.97-4.98-4.97-13.05,0-18.03h0c3.78-3.79,4.79-9.54,2.54-14.39h0c-2.96-6.38-.21-13.96,6.17-16.94h0c4.85-2.27,7.76-7.32,7.31-12.66h0c-.6-7.01,4.58-13.19,11.59-13.81h0c5.33-.48,9.8-4.23,11.19-9.39h0c1.83-6.79,8.81-10.82,15.61-9.01h0c5.17,1.38,10.66-.62,13.73-5h0c4.04-5.76,11.98-7.16,17.75-3.13h0c4.39,3.06,10.22,3.06,14.61,0Z"/>
    <text class="cls-1" transform="translate(35.71 98.3)"><tspan class="cls-13" x="0" y="0">S</tspan><tspan class="cls-14" x="21.16" y="0">A</tspan><tspan class="cls-18" x="48.78" y="0">L</tspan><tspan class="cls-17" x="71.27" y="0">O</tspan><tspan x="99.06" y="0">N</tspan></text>
    <g>
      <text class="cls-2" transform="translate(60.32 122.14)"><tspan class="cls-12" x="0" y="0">S</tspan><tspan class="cls-21" x="11.74" y="0">T</tspan><tspan class="cls-22" x="26.09" y="0">U</tspan><tspan class="cls-19" x="40.79" y="0">D</tspan><tspan class="cls-22" x="55.3" y="0">I</tspan><tspan class="cls-16" x="61.9" y="0">O</tspan></text>
      <g>
        <g>
          <circle class="cls-4" cx="40.44" cy="116.72" r="1.27"/>
          <circle class="cls-4" cx="50.15" cy="116.72" r="1.27"/>
          <path class="cls-4" d="M41.71,110.41c0,.7-.57,1.27-1.27,1.27s-1.27-.57-1.27-1.27.57-1.27,1.27-1.27,1.27.57,1.27,1.27Z"/>
          <path class="cls-4" d="M51.42,110.41c0,.7-.57,1.27-1.27,1.27s-1.27-.57-1.27-1.27.57-1.27,1.27-1.27,1.27.57,1.27,1.27Z"/>
        </g>
        <g>
          <path class="cls-4" d="M156.69,116.72c0,.7.57,1.27,1.27,1.27s1.27-.57,1.27-1.27-.57-1.27-1.27-1.27-1.27.57-1.27,1.27Z"/>
          <circle class="cls-4" cx="148.24" cy="116.72" r="1.27"/>
          <path class="cls-4" d="M156.69,110.41c0,.7.57,1.27,1.27,1.27s1.27-.57,1.27-1.27-.57-1.27-1.27-1.27-1.27.57-1.27,1.27Z"/>
          <path class="cls-4" d="M146.97,110.41c0,.7.57,1.27,1.27,1.27s1.27-.57,1.27-1.27-.57-1.27-1.27-1.27-1.27.57-1.27,1.27Z"/>
        </g>
      </g>
    </g>
    <g class="cls-20">
      <g>
        <path class="cls-8" d="M170.22,38.47c-2.22,4.02-5.3,7.82-9.55,9.58-4.24,1.76-9.8.93-12.43-2.84-1.56-2.24-1.97-5.21-3.84-7.19-1.84-1.95-4.66-2.51-7.12-3.57-4.15-1.78-7.55-5.24-9.27-9.42-1.72-4.18-1.73-9.03-.03-13.21"/>
        <path class="cls-8" d="M9.07,103.55c4.24,1.1,9-.13,12.18-3.13,3.19-3,4.69-7.68,3.85-11.98-.53-2.68-1.89-5.39-1.1-8,.77-2.54,3.32-4.06,4.87-6.21,2.22-3.06,2.26-7.28,1.04-10.85-1.22-3.58-3.53-6.66-5.8-9.68"/>
        <path class="cls-8" d="M71.37,191.85c-.3-8.98,6.04-17.76,14.65-20.31,5.3-1.57,10.99-.94,16.42.08,4.79.9,10.38,1.89,14.02-1.35,2.78-2.48,3.33-6.54,5.03-9.86,3.15-6.18,10.94-9.55,17.6-7.62,3.1.9,6.01,2.81,9.24,2.71,2.4-.07,4.64-1.26,7.03-1.51,3.06-.32,6.12.96,8.54,2.86s4.33,4.37,6.2,6.81"/>
      </g>
    </g>
    <path class="cls-9" d="M105.86,12.85h0c5.26-3.67,12.49-2.39,16.18,2.85h0c2.8,3.99,7.8,5.81,12.51,4.55h0c6.2-1.65,12.56,2.02,14.23,8.21h0c1.27,4.71,5.34,8.13,10.2,8.56h0c6.39.57,11.11,6.2,10.56,12.59h0c-.42,4.86,2.24,9.46,6.66,11.53h0c5.81,2.72,8.32,9.62,5.62,15.44h0c-2.05,4.42-1.13,9.66,2.31,13.11h0c4.53,4.54,4.53,11.89,0,16.43h0c-3.44,3.45-4.37,8.69-2.31,13.11h0c2.7,5.82.19,12.72-5.62,15.44h0c-4.42,2.07-7.08,6.67-6.66,11.53h0c.55,6.39-4.17,12.02-10.56,12.59h0c-4.86.43-8.93,3.85-10.2,8.56h0c-1.67,6.19-8.03,9.86-14.23,8.21h0c-4.71-1.25-9.71.56-12.51,4.55h0c-3.69,5.25-10.92,6.52-16.18,2.85h0c-4-2.79-9.32-2.79-13.32,0h0c-5.26,3.67-12.49,2.39-16.18-2.85h0c-2.8-3.99-7.8-5.81-12.51-4.55h0c-6.2,1.65-12.56-2.02-14.23-8.21h0c-1.27-4.71-5.34-8.13-10.2-8.56h0c-6.39-.57-11.11-6.2-10.56-12.59h0c.42-4.86-2.24-9.46-6.66-11.53h0c-5.81-2.72-8.32-9.62-5.62-15.44h0c2.05-4.42,1.13-9.66-2.31-13.11h0c-4.53-4.54-4.53-11.89,0-16.43h0c3.44-3.45,4.37-8.69,2.31-13.11h0c-2.7-5.82-.19-12.72,5.62-15.44h0c4.42-2.07,7.08-6.67,6.66-11.53h0c-.55-6.39,4.17-12.02,10.56-12.59h0c4.86-.43,8.93-3.85,10.2-8.56h0c1.67-6.19,8.03-9.86,14.23-8.21h0c4.71,1.25,9.71-.56,12.51-4.55h0c3.69-5.25,10.92-6.52,16.18-2.85h0c4,2.79,9.32,2.79,13.32,0Z"/>
    <g class="cls-15">
      <g>
        <path class="cls-8" d="M91.52,36.07c0,6.22,3.03,11.72,7.67,15.16,4.65-3.44,7.67-8.94,7.67-15.16s-3.03-11.72-7.67-15.16c-4.65,3.44-7.67,8.94-7.67,15.16Z"/>
        <path class="cls-8" d="M83.05,45.94c4.4,4.4,10.43,6.15,16.14,5.3.86-5.71-.9-11.74-5.3-16.14s-10.43-6.15-16.14-5.3c-.86,5.71.9,11.74,5.3,16.14Z"/>
        <path class="cls-8" d="M84.04,58.91c6.22,0,11.72-3.03,15.16-7.67-3.44-4.65-8.94-7.67-15.16-7.67s-11.72,3.03-15.16,7.67c3.44,4.65,8.94,7.67,15.16,7.67Z"/>
        <path class="cls-8" d="M93.9,67.38c4.4-4.4,6.15-10.43,5.3-16.14-5.71-.86-11.74.9-16.14,5.3-4.4,4.4-6.15,10.43-5.3,16.14,5.71.86,11.74-.9,16.14-5.3Z"/>
        <path class="cls-8" d="M106.87,66.39c0-6.22-3.03-11.72-7.67-15.16-4.65,3.44-7.67,8.94-7.67,15.16s3.03,11.72,7.67,15.16c4.65-3.44,7.67-8.94,7.67-15.16Z"/>
        <path class="cls-8" d="M115.34,56.53c-4.4-4.4-10.43-6.15-16.14-5.3-.86,5.71.9,11.74,5.3,16.14,4.4,4.4,10.43,6.15,16.14,5.3.86-5.71-.9-11.74-5.3-16.14Z"/>
        <path class="cls-8" d="M114.36,43.56c-6.22,0-11.72,3.03-15.16,7.67,3.44,4.65,8.94,7.67,15.16,7.67s11.72-3.03,15.16-7.67c-3.44-4.65-8.94-7.67-15.16-7.67Z"/>
        <path class="cls-8" d="M104.49,35.09c-4.4,4.4-6.15,10.43-5.29,16.14,5.71.86,11.74-.9,16.14-5.3,4.4-4.4,6.15-10.43,5.3-16.14-5.71-.86-11.74.9-16.14,5.3Z"/>
      </g>
    </g>
    <rect class="cls-11" x="53" y="60.4" width="92.39" height="2.74"/>
    <line class="cls-7" x1="42.07" y1="60.16" x2="156.32" y2="60.16"/>
    <rect class="cls-11" x="53" y="132.75" width="92.39" height="2.92"/>
    <line class="cls-7" x1="156.32" y1="135.67" x2="42.07" y2="135.67"/>
    <polygon class="cls-4" points="128.37 159.68 99.2 157.03 70.02 159.68 70.02 135.67 128.37 135.67 128.37 159.68"/>
    <polyline class="cls-5" points="126.29 136.53 126.29 157.5 99.2 155.04 72.1 157.5 72.1 136.53"/>
    <text class="cls-3" transform="translate(77.66 148.85)"><tspan class="cls-23" x="0" y="0">S</tspan><tspan class="cls-24" x="4.48" y="0">I</tspan><tspan class="cls-25" x="7.39" y="0">N</tspan><tspan class="cls-24" x="12.71" y="0">CE 2024</tspan></text>
  </g>
</svg>