<?xml version="1.0" encoding="UTF-8"?>
<svg id="Layer_2" data-name="Layer 2" xmlns="http://www.w3.org/2000/svg" viewBox="0 0 352.07 352.07">
  <defs>
    <style>
      .cls-1 {
        fill: #9f4333;
      }

      .cls-1, .cls-2, .cls-3, .cls-4 {
        stroke-width: 0px;
      }

      .cls-2 {
        fill: #a69a80;
      }

      .cls-3 {
        fill: #b6823d;
      }

      .cls-4 {
        fill: #0d2022;
      }
    </style>
  </defs>
  <g id="Layer_2-2" data-name="Layer 2">
    <path class="cls-4" d="M196.04,1.66C88.86,1.66,1.66,88.86,1.66,196.04s87.2,194.37,194.37,194.37,194.37-87.2,194.37-194.37S303.21,1.66,196.04,1.66Z"/>
    <path class="cls-2" d="M196.04,0C87.94,0,0,87.94,0,196.04s87.94,196.04,196.04,196.04,196.04-87.94,196.04-196.04S304.13,0,196.04,0ZM196.04,390.41C88.86,390.41,1.66,303.21,1.66,196.04S88.86,1.66,196.04,1.66s194.37,87.2,194.37,194.37-87.2,194.37-194.37,194.37Z"/>
    <path class="cls-1" d="M196.04,386.52c-105.03,0-190.48-85.45-190.48-190.48S91,5.55,196.04,5.55s190.48,85.45,190.48,190.48-85.45,190.48-190.48,190.48ZM196.04,12.2C94.67,12.2,12.2,94.67,12.2,196.04s82.47,183.84,183.84,183.84,183.84-82.47,183.84-183.84S297.4,12.2,196.04,12.2Z"/>
    <g>
      <path class="cls-3" d="M227.22,210.3c4.48-.66,9.25-6.14,9.27-14.16.02-8.02-3.53-15.6-9.04-20.66-5.51-5.06-8.39-3.47-12.36-6.52-3.97-3.05-6.7-6.79-8.03-15.36,0,0-.15-1.32,1.13-1.79,1.28-.47,1.45-1.79,1.04-2.54-.41-.75-1.77-1.17-2-1.57-.23-.4-2.33-9.7-4.68-18.19-2.25-8.13-13.79-47.4-22.74-65.68-.24-.48-1-.35-.94.17.72,7.31,3.04,29.21,6.59,44.89,3.83,16.9,7.48,32.83,8.27,36.26.1.44.35.85.71,1.18l8.25,7.4c1.07.95,1.78,2.19,2,3.52.58,3.47,2.27,10.84,6.72,16.42.31.39.17.92-.3,1.06-.85.26-1.98.76-2.15,1.61-.28,1.39.62,2.42,1.6,2.43.99.01,2.89-.54,2.85,2.04-.04,2.58-1.27,17.03,1.72,22.97,2.99,5.93,7.61,7.17,12.08,6.52ZM194.23,132.45c.62-1.73,2.67-2.56,4.58-1.86,1.91.7,2.95,2.67,2.33,4.39s-2.67,2.56-4.58,1.86c-1.91-.7-2.95-2.67-2.33-4.39ZM220.53,207.03c-4.37-2.83-5.73-8.12-5.6-14.13.14-6.01-.07-11.43.18-12.57.25-1.14,1.25-1.07,3.89-.03,4.18,1.65,11.26,4.53,13.73,9.37,2.48,4.83,1.84,10.94-.51,14.65-2.26,3.57-7.33,5.55-11.7,2.72Z"/>
      <g>
        <path class="cls-3" d="M199.86,132.13c-.84-.96-2.27-1.35-3.47-.86-1.2.49-1.79,1.7-1.49,2.88l4.96-2.02Z"/>
        <path class="cls-3" d="M200.47,133.29l-4.96,2.02c.84.96,2.27,1.35,3.47.86,1.2-.49,1.79-1.7,1.49-2.88Z"/>
      </g>
      <g>
        <path class="cls-3" d="M198.33,112.33c1.01,3.46,4.36,14.94,5.64,19.32.13.44.8.47.91.04,2.97-12.26,7.37-30.12,10.66-42.14,3.77-13.77,1.53-20.56.29-22.97-.24-.47-.95-.51-1.18-.06-3.95,7.76-11.2,28.57-16.29,43.86-.21.63-.22,1.3-.02,1.95Z"/>
        <path class="cls-3" d="M164.76,210.3c4.63,1.34,9.48.64,12.79-5.35,3.31-5.99,2.51-21.77,2.55-24.56.04-2.79,2-1.93,3.03-1.8,1.03.12,2-.86,1.75-2.4-.11-.68-.75-1.24-1.42-1.64-.83-.5-1.08-1.51-.51-2.19,5.04-6.08,6.79-14.64,7.24-17.39.1-.59.41-1.11.89-1.48l4.95-3.83c.26-.2.26-.58,0-.81l-2.28-2.04c-.43-.39-.72-.87-.85-1.4-.33-1.46-1.1-4.78-2.08-9.08-.06-.28-.48-.31-.56-.05-1.42,5.06-2.46,8.98-2.62,9.23-.25.4-1.67.67-2.13,1.42-.45.75-.33,2.2.99,2.89,1.32.68,1.12,2.09,1.12,2.09-1.67,9.06-4.63,12.72-8.87,15.46-4.23,2.74-7.18.62-13.08,5.31-5.9,4.69-9.85,12.38-10.1,21.05-.25,8.67,4.54,15.25,9.17,16.59ZM159.75,203.12c-2.32-4.34-2.77-11.02-.04-15.89,2.74-4.87,10.19-6.99,14.6-8.19,2.78-.75,3.83-.69,4.05.58.22,1.27-.17,7.1-.23,13.61-.06,6.51-1.66,12.03-6.3,14.47-4.64,2.45-9.85-.4-12.08-4.58Z"/>
      </g>
    </g>
    <path class="cls-2" d="M254.46,33.79c-.56-.24-1.21.01-1.46.57l-9.73,22.27c-.24.56.01,1.21.57,1.46s1.21-.01,1.46-.57l9.73-22.27c.24-.56-.01-1.21-.57-1.46Z"/>
    <path class="cls-2" d="M295.59,56.99c.51.33,1.2.18,1.53-.33s.18-1.2-.33-1.53l-8.53-5.48c-.51-.33-1.2-.18-1.53.33l-13.15,20.44c-.33.51-.18,1.2.33,1.53l8.53,5.48c.51.33,1.2.18,1.53-.33s.18-1.2-.33-1.53l-7.6-4.89.98-1.53,3.33,2.14c.51.33,1.2.18,1.53-.33s.18-1.2-.33-1.53l-3.33-2.14,9.77-15.19,7.6,4.89Z"/>
    <path class="cls-2" d="M210.63,25.82c.61.05,1.14-.41,1.18-1.02s-.41-1.14-1.02-1.18l-10.11-.76c-.61-.05-1.14.41-1.18,1.02l-1.81,24.24c-.05.61.41,1.14,1.02,1.18l10.11.76c.61.05,1.14-.41,1.18-1.02s-.41-1.14-1.02-1.18l-9.01-.67.14-1.81,3.95.3c.61.05,1.14-.41,1.18-1.02s-.41-1.14-1.02-1.18l-3.95-.3,1.35-18.02,9.01.67Z"/>
    <path class="cls-2" d="M152.19,31.48c.57-.21.86-.85.65-1.42s-.85-.86-1.42-.65l-9.51,3.52c-.57.21-.86.85-.65,1.42l8.45,22.79c.21.57.85.86,1.42.65l9.51-3.52c.57-.21.86-.85.65-1.42s-.85-.86-1.42-.65l-8.47,3.14-.63-1.71,3.72-1.38c.57-.21.86-.85.65-1.42s-.85-.86-1.42-.65l-3.72,1.38-6.28-16.94,8.47-3.14Z"/>
    <path class="cls-2" d="M232.2,52.88l-8.55-2.91,7.49-21.96c.2-.58-.11-1.21-.69-1.4s-1.21.11-1.4.69l-7.84,23.01c-.2.58.11,1.21.69,1.4l9.6,3.27c.58.2,1.21-.11,1.4-.69s-.11-1.21-.69-1.4Z"/>
    <path class="cls-2" d="M123.3,40.93c-.53.31-.71.98-.4,1.51l9.64,16.57-6.85,3.98-9.64-16.57c-.31-.53-.98-.71-1.51-.4s-.71.98-.4,1.51l12.22,21.01c.31.53.98.71,1.51.4s.71-.98.4-1.51l-1.47-2.53,6.85-3.98,1.47,2.53c.31.53.98.71,1.51.4s.71-.98.4-1.51l-12.22-21.01c-.31-.53-.98-.71-1.51-.4Z"/>
    <path class="cls-2" d="M157.28,285.42s0,0,0,0l-10.98-52.63s0,0,0-.01v-.03c-.02-.05-.04-.1-.05-.15-.03-.13-.07-.25-.12-.37-.04-.09-.09-.17-.13-.25-.04-.08-.08-.16-.13-.24-.06-.09-.13-.16-.19-.24-.05-.06-.1-.13-.16-.19-.07-.07-.15-.13-.23-.2-.07-.05-.13-.11-.2-.16-.09-.06-.19-.11-.29-.16-.07-.03-.13-.07-.19-.1-.14-.06-.3-.11-.45-.14-.03,0-.05-.02-.08-.03,0,0,0,0,0,0-.15-.03-.3-.04-.45-.05-.04,0-.09-.01-.13-.01-.04,0-.08.01-.13.01-.15,0-.31.02-.45.05,0,0,0,0,0,0-.02,0-.04.02-.07.02-.16.04-.32.08-.47.15-.06.03-.12.06-.18.09-.11.05-.21.11-.31.17-.07.04-.12.1-.18.15-.08.07-.17.13-.24.21-.05.06-.1.12-.15.18-.07.08-.14.16-.2.25-.05.07-.08.15-.13.23-.05.09-.1.17-.14.26-.05.12-.08.24-.12.37-.01.05-.04.1-.05.16v.03s0,0,0,.01l-10.98,52.63s0,0,0,.01l-2.18,10.45c-.32,1.55.67,3.07,2.22,3.4.2.04.39.06.59.06,1.33,0,2.52-.93,2.81-2.29l1.71-8.18h17.3l1.71,8.18c.28,1.35,1.48,2.29,2.81,2.29.19,0,.39-.02.59-.06,1.55-.32,2.55-1.84,2.22-3.4l-2.18-10.46ZM136.03,283.13l7.45-35.73,7.45,35.73h-14.9Z"/>
    <path class="cls-2" d="M207.43,293.59h-23.46v-60.26c0-1.59-1.29-2.87-2.87-2.87s-2.87,1.29-2.87,2.87v63.13c0,1.59,1.29,2.87,2.87,2.87h26.33c1.59,0,2.87-1.29,2.87-2.87s-1.29-2.87-2.87-2.87Z"/>
    <path class="cls-2" d="M308.98,230.46c-1.59,0-2.87,1.29-2.87,2.87v40.5l-20.89-41.79s-.06-.09-.09-.14c-.05-.09-.11-.18-.17-.27-.05-.07-.11-.14-.17-.2-.06-.07-.13-.14-.2-.21-.07-.06-.14-.12-.21-.17-.07-.06-.15-.11-.23-.16-.08-.05-.16-.09-.24-.13-.08-.04-.17-.08-.26-.11-.09-.03-.18-.06-.27-.08-.09-.02-.17-.04-.26-.06-.11-.02-.21-.03-.32-.03-.05,0-.1-.02-.16-.02-.03,0-.05,0-.08,0-.11,0-.22.02-.33.03-.08.01-.17.02-.25.04-.09.02-.17.05-.26.08-.1.03-.2.07-.29.11-.03.01-.05.02-.08.03-.05.03-.09.06-.14.09-.09.05-.18.11-.27.17-.07.05-.14.11-.21.17-.07.06-.14.13-.2.19-.06.07-.12.14-.18.22-.06.07-.11.15-.16.23-.05.08-.09.16-.13.24-.04.08-.08.17-.11.26-.03.09-.06.17-.08.26-.02.09-.05.18-.06.27-.02.1-.02.2-.03.31,0,.06-.02.11-.02.17v63.13c0,1.59,1.29,2.87,2.87,2.87s2.87-1.29,2.87-2.87v-50.97l20.59,41.18v9.79c0,1.59,1.29,2.87,2.87,2.87s2.87-1.29,2.87-2.87v-63.13c0-1.59-1.29-2.87-2.87-2.87Z"/>
    <path class="cls-2" d="M245.04,230.46c-8.84,0-16.04,7.19-16.04,16.04v36.8c0,8.84,7.19,16.04,16.04,16.04s16.04-7.19,16.04-16.04v-36.8c0-8.84-7.19-16.04-16.04-16.04ZM255.33,283.3c0,5.68-4.62,10.3-10.3,10.3s-10.3-4.62-10.3-10.3v-36.8c0-5.68,4.62-10.3,10.3-10.3s10.3,4.62,10.3,10.3v36.8Z"/>
    <path class="cls-2" d="M92.7,230.46c-.32,0-.63,0-.94.03-5.22.3-9.7,3.34-11.99,8.12-2.33,4.87-1.83,10.6,1.29,14.95l18.61,26.01c1.93,2.7,2.22,6.11.78,9.14-1.37,2.86-4.04,4.68-7.14,4.86-.2.01-.4.02-.6.02-5.68,0-10.3-4.62-10.3-10.3,0-1.59-1.29-2.87-2.87-2.87s-2.87,1.29-2.87,2.87c0,8.84,7.19,16.04,16.04,16.04.32,0,.63,0,.94-.03,5.22-.3,9.7-3.34,11.99-8.12,2.33-4.87,1.83-10.6-1.29-14.95l-18.62-26.01c-1.93-2.7-2.22-6.11-.78-9.14,1.37-2.86,4.04-4.68,7.14-4.86.2-.01.4-.02.6-.02,5.68,0,10.3,4.62,10.3,10.3,0,1.59,1.29,2.87,2.87,2.87s2.87-1.29,2.87-2.87c0-8.84-7.19-16.04-16.04-16.04Z"/>
    <path class="cls-2" d="M276.21,43.79l-8.88-4.89c-.53-.29-1.21-.1-1.5.44s-.1,1.21.44,1.5l3.47,1.91-11.19,20.32c-.29.53-.1,1.21.44,1.5s1.21.1,1.5-.44l11.19-20.32,3.47,1.91c.53.29,1.21.1,1.5-.44s.1-1.21-.44-1.5Z"/>
    <path class="cls-2" d="M98.06,55.15l-8.21,5.95c-.49.36-.6,1.05-.25,1.54s1.05.6,1.54.25l3.21-2.33,13.62,18.79c.36.49,1.05.6,1.54.25s.6-1.05.25-1.54l-13.62-18.79,3.21-2.33c.49-.36.6-1.05.25-1.54s-1.05-.6-1.54-.25Z"/>
    <g>
      <path class="cls-2" d="M148.15,319.59c-.18,0-.35,0-.52.02-2.9.17-5.4,1.86-6.67,4.52-1.29,2.71-1.02,5.89.72,8.32l10.36,14.47c1.07,1.5,1.24,3.4.43,5.08-.76,1.59-2.25,2.6-3.97,2.7-.11,0-.22,0-.34,0-3.16,0-5.73-2.57-5.73-5.73,0-.88-.71-1.6-1.6-1.6s-1.6.71-1.6,1.6c0,4.92,4,8.92,8.92,8.92.18,0,.35,0,.52-.02,2.9-.17,5.4-1.86,6.67-4.52,1.29-2.71,1.02-5.89-.72-8.32l-10.36-14.47c-1.07-1.5-1.24-3.4-.43-5.08.76-1.59,2.25-2.6,3.97-2.71.11,0,.22,0,.34,0,3.16,0,5.73,2.57,5.73,5.73,0,.88.71,1.6,1.6,1.6s1.6-.71,1.6-1.6c0-4.92-4-8.92-8.92-8.92Z"/>
      <path class="cls-2" d="M229.21,319.78c-.88,0-1.59.71-1.59,1.59v34.94c0,.88.71,1.59,1.59,1.59s1.59-.71,1.59-1.59v-34.94c0-.88-.71-1.59-1.59-1.59Z"/>
      <path class="cls-2" d="M207.14,319.78c-.88,0-1.59.71-1.59,1.59v34.94c0,.88.71,1.59,1.59,1.59,8.91,0,16.16-8.55,16.16-19.06s-7.25-19.06-16.16-19.06ZM208.73,354.6v-31.51c6.41.96,11.4,7.66,11.4,15.76s-4.98,14.8-11.4,15.76Z"/>
      <path class="cls-2" d="M244,319.78c-4.89,0-8.88,3.98-8.88,8.88v20.36c0,4.89,3.98,8.88,8.88,8.88s8.88-3.98,8.88-8.88v-20.36c0-4.89-3.98-8.88-8.88-8.88ZM249.7,349.02c0,3.14-2.56,5.7-5.7,5.7s-5.7-2.56-5.7-5.7v-20.36c0-3.14,2.56-5.7,5.7-5.7s5.7,2.56,5.7,5.7v20.36Z"/>
      <path class="cls-2" d="M177.56,319.78h-14.57c-.88,0-1.59.71-1.59,1.59s.71,1.59,1.59,1.59h5.7v33.35c0,.88.71,1.59,1.59,1.59s1.59-.71,1.59-1.59v-33.35h5.7c.88,0,1.59-.71,1.59-1.59s-.71-1.59-1.59-1.59Z"/>
      <path class="cls-2" d="M199.63,319.78c-.88,0-1.59.71-1.59,1.59v27.65c0,3.14-2.56,5.7-5.7,5.7s-5.7-2.56-5.7-5.7v-27.65c0-.88-.71-1.59-1.59-1.59s-1.59.71-1.59,1.59v27.65c0,4.89,3.98,8.88,8.88,8.88s8.88-3.98,8.88-8.88v-27.65c0-.88-.71-1.59-1.59-1.59Z"/>
    </g>
    <path class="cls-2" d="M196.23,376.27c-99.38,0-180.24-80.85-180.24-180.24S96.84,15.8,196.23,15.8s180.24,80.85,180.24,180.24-80.85,180.24-180.24,180.24ZM196.23,17.33C97.69,17.33,17.52,97.49,17.52,196.04s80.17,178.71,178.71,178.71,178.71-80.17,178.71-178.71S294.77,17.33,196.23,17.33Z"/>
  </g>
</svg>